<?xml version="1.0" encoding="UTF-8" standalone="no"?>
<!-- Created with Inkscape (http://www.inkscape.org/) -->

<svg
   xmlns:dc="http://purl.org/dc/elements/1.1/"
   xmlns:cc="http://creativecommons.org/ns#"
   xmlns:rdf="http://www.w3.org/1999/02/22-rdf-syntax-ns#"
   xmlns:svg="http://www.w3.org/2000/svg"
   xmlns="http://www.w3.org/2000/svg"
   xmlns:sodipodi="http://sodipodi.sourceforge.net/DTD/sodipodi-0.dtd"
   xmlns:inkscape="http://www.inkscape.org/namespaces/inkscape"
   width="20"
   height="30"
   viewBox="0 0 5.2916665 7.9375002"
   version="1.1"
   id="svg4489"
   inkscape:version="0.92.1 r15371"
   sodipodi:docname="woo.svg">
  <defs
     id="defs4483" />
  <sodipodi:namedview
     id="base"
     pagecolor="#ffffff"
     bordercolor="#666666"
     borderopacity="1.0"
     inkscape:pageopacity="0.0"
     inkscape:pageshadow="2"
     inkscape:zoom="42.302663"
     inkscape:cx="11.432268"
     inkscape:cy="15.001476"
     inkscape:document-units="mm"
     inkscape:current-layer="layer1"
     showgrid="false"
     units="px"
     inkscape:window-width="3200"
     inkscape:window-height="1689"
     inkscape:window-x="0"
     inkscape:window-y="55"
     inkscape:window-maximized="1" />
  <metadata
     id="metadata4486">
    <rdf:RDF>
      <cc:Work
         rdf:about="">
        <dc:format>image/svg+xml</dc:format>
        <dc:type
           rdf:resource="http://purl.org/dc/dcmitype/StillImage" />
        <dc:title></dc:title>
      </cc:Work>
    </rdf:RDF>
  </metadata>
  <g
     inkscape:label="Layer 1"
     inkscape:groupmode="layer"
     id="layer1"
     transform="translate(0,-289.06248)">
    <path
       style="clip-rule:evenodd;fill:#ffffff;fill-rule:evenodd;stroke-width:0.02137679"
       d="m 0.51418351,291.68977 c -0.26934757,0 -0.48737402,0.2202 -0.48523632,0.48741 v 1.62463 c 0,0.26936 0.21805989,0.48741 0.48740746,0.48741 H 2.5321612 l 0.9213314,0.51305 -0.2094674,-0.51305 h 1.5263116 c 0.2693472,0 0.4873657,-0.21805 0.4873657,-0.48741 v -1.62463 c 0,-0.26935 -0.2180185,-0.48741 -0.4873657,-0.48741 z m 1.76045419,0.28575 c 0.042086,4.2e-4 0.080906,0.0154 0.116445,0.0435 0.040616,0.0321 0.061984,0.0727 0.06626,0.12187 0.00214,0.0385 -0.00427,0.0705 -0.021377,0.10259 -0.083369,0.15391 -0.1517583,0.41256 -0.2073378,0.77169 -0.053443,0.34844 -0.072698,0.61997 -0.059872,0.81449 0.00429,0.0534 -0.00424,0.10047 -0.025633,0.14108 -0.025655,0.047 -0.064147,0.0727 -0.1133138,0.0769 -0.05558,0.004 -0.1133054,-0.0214 -0.1688849,-0.079 -0.1988042,-0.20308 -0.3569842,-0.50666 -0.4724187,-0.91068 -0.1389493,0.27362 -0.2415661,0.47886 -0.3078342,0.61567 -0.126123,0.24155 -0.23299875,0.36554 -0.32278154,0.37196 -0.057717,0.004 -0.1068837,-0.0449 -0.1496376,-0.14751 -0.10902144,-0.28004 -0.2265937,-0.82087 -0.35271672,-1.6225 -0.006411,-0.0556 0.004246,-0.10474 0.0341935,-0.14321 0.0299267,-0.0406 0.0748358,-0.062 0.13469079,-0.0663 0.10902138,-0.009 0.17099763,0.0427 0.18596148,0.15389 0.0662676,0.44678 0.13898214,0.82514 0.21593863,1.1351 l 0.46811846,-0.89139 c 0.042754,-0.0813 0.096196,-0.12399 0.1603262,-0.12826 0.094058,-0.006 0.1518003,0.0534 0.175315,0.17957 0.053442,0.28431 0.1218476,0.52585 0.2030796,0.73108 0.05558,-0.54298 0.1496207,-0.93417 0.2821567,-1.17574 0.032065,-0.0598 0.079086,-0.0898 0.1410784,-0.094 0.00614,-5.2e-4 0.012233,-10e-4 0.018246,-5.2e-4 z m 0.8133202,0.2316 c 0.036341,0 0.074827,0.004 0.115443,0.0129 0.1496376,0.0321 0.2650722,0.11329 0.3420286,0.24796 0.068406,0.11544 0.1026255,0.25441 0.1026255,0.42116 0,0.22017 -0.055596,0.42109 -0.1667558,0.60493 -0.1282607,0.21377 -0.2949998,0.32065 -0.5023547,0.32065 -0.036341,0 -0.074827,-0.004 -0.1154429,-0.0128 -0.1517752,-0.0321 -0.2650723,-0.11329 -0.3420287,-0.24796 -0.068406,-0.11757 -0.1025837,-0.25867 -0.1025837,-0.42328 0,-0.22018 0.055555,-0.4211 0.1667141,-0.60281 0.1303984,-0.21376 0.2971374,-0.32065 0.5023546,-0.32065 z m 1.34035,0 c 0.03634,0 0.074785,0.004 0.1154014,0.0129 0.1517752,0.0321 0.2650722,0.11329 0.3420288,0.24796 0.068406,0.11544 0.1026252,0.25441 0.1026252,0.42116 0,0.22017 -0.055596,0.42109 -0.1667557,0.60493 -0.1282608,0.21377 -0.2949997,0.32065 -0.5023548,0.32065 -0.03634,0 -0.074785,-0.004 -0.1154013,-0.0128 -0.1517752,-0.0321 -0.2650723,-0.11329 -0.3420287,-0.24796 -0.068406,-0.11757 -0.1026253,-0.25867 -0.1026253,-0.42328 0,-0.22018 0.055596,-0.4211 0.1667555,-0.60281 0.1303987,-0.21376 0.2971378,-0.32065 0.5023549,-0.32065 z m -1.3306219,0.35835 c -0.06684,-4.2e-4 -0.1318346,0.0437 -0.1935602,0.13544 -0.057717,0.0813 -0.094075,0.16674 -0.1133136,0.25439 -0.010688,0.0492 -0.014947,0.10259 -0.014947,0.15603 0,0.0619 0.012843,0.12829 0.038495,0.19457 0.032065,0.0834 0.074785,0.12825 0.1260897,0.13895 0.053442,0.0107 0.1111926,-0.0129 0.1731855,-0.0685 0.079095,-0.0705 0.1325277,-0.17527 0.1624552,-0.31635 0.010688,-0.0492 0.014947,-0.10262 0.014947,-0.1582 0,-0.0619 -0.012802,-0.12825 -0.038454,-0.19452 -0.032065,-0.0834 -0.074827,-0.12827 -0.1261313,-0.13895 -0.00961,-0.002 -0.019218,-0.003 -0.028766,-0.003 z m 1.3403083,0 c -0.06684,-4.2e-4 -0.1318348,0.0437 -0.1935602,0.13544 -0.057717,0.0813 -0.094032,0.16674 -0.113272,0.25439 -0.010688,0.0492 -0.014989,0.10259 -0.014989,0.15603 0,0.0619 0.012843,0.12829 0.038495,0.19457 0.032065,0.0834 0.074827,0.12825 0.1261315,0.13895 0.053442,0.0107 0.1111509,-0.0129 0.1731438,-0.0685 0.079095,-0.0705 0.1325277,-0.17527 0.1624552,-0.31635 0.00855,-0.0492 0.014989,-0.10262 0.014989,-0.1582 0,-0.0619 -0.012843,-0.12825 -0.038495,-0.19452 -0.032065,-0.0834 -0.074827,-0.12827 -0.1261315,-0.13895 -0.00961,-0.002 -0.019218,-0.003 -0.028766,-0.003 z"
       id="path2"
       inkscape:connector-curvature="0" />
  </g>
</svg>
