<?xml version="1.0" encoding="UTF-8" standalone="no"?>
<svg
   xmlns:dc="http://purl.org/dc/elements/1.1/"
   xmlns:cc="http://creativecommons.org/ns#"
   xmlns:rdf="http://www.w3.org/1999/02/22-rdf-syntax-ns#"
   xmlns:svg="http://www.w3.org/2000/svg"
   xmlns="http://www.w3.org/2000/svg"
   xmlns:sodipodi="http://sodipodi.sourceforge.net/DTD/sodipodi-0.dtd"
   xmlns:inkscape="http://www.inkscape.org/namespaces/inkscape"
   viewBox="0 0 250 250"
   version="1.1"
   id="svg6"
   sodipodi:docname="wordpress.svg"
   inkscape:version="0.92.1 r15371">
  <metadata
     id="metadata12">
    <rdf:RDF>
      <cc:Work
         rdf:about="">
        <dc:format>image/svg+xml</dc:format>
        <dc:type
           rdf:resource="http://purl.org/dc/dcmitype/StillImage" />
      </cc:Work>
    </rdf:RDF>
  </metadata>
  <defs
     id="defs10" />
  <sodipodi:namedview
     pagecolor="#ffffff"
     bordercolor="#666666"
     borderopacity="1"
     objecttolerance="10"
     gridtolerance="10"
     guidetolerance="10"
     inkscape:pageopacity="0"
     inkscape:pageshadow="2"
     inkscape:window-width="3200"
     inkscape:window-height="1689"
     id="namedview8"
     showgrid="false"
     inkscape:zoom="0.944"
     inkscape:cx="127.11864"
     inkscape:cy="125"
     inkscape:window-x="0"
     inkscape:window-y="55"
     inkscape:window-maximized="1"
     inkscape:current-layer="svg6" />
  <style
     type="text/css"
     id="style2"> .st0{fill:#4498C8;} </style>
  <path
     class="st0"
     d="M123.1 30.5C71 30.5 28.6 72.9 28.6 125c0 52.1 42.4 94.5 94.5 94.5 52.1 0 94.5-42.4 94.5-94.5C217.6 72.9 175.2 30.5 123.1 30.5M38.1 125c0-12.3 2.6-24 7.4-34.6l40.5 111C57.7 187.7 38.1 158.6 38.1 125M123.1 210c-8.3 0-16.4-1.2-24-3.5l25.5-74.1 26.1 71.5c0.2 0.4 0.4 0.8 0.6 1.2C142.5 208.3 133 210 123.1 210M134.8 85.2c5.1-0.3 9.7-0.8 9.7-0.8 4.6-0.5 4-7.3-0.5-7 0 0-13.8 1.1-22.6 1.1 -8.3 0-22.4-1.1-22.4-1.1 -4.6-0.3-5.1 6.7-0.5 7 0 0 4.3 0.5 8.9 0.8l13.2 36.3L102 177.2 71 85.2c5.1-0.3 9.7-0.8 9.7-0.8 4.6-0.5 4-7.3-0.5-7 0 0-13.8 1.1-22.6 1.1 -1.6 0-3.5 0-5.5-0.1C67.3 55.3 93.4 40 123.1 40c22.1 0 42.3 8.5 57.4 22.3 -0.4 0-0.7-0.1-1.1-0.1 -8.3 0-14.3 7.3-14.3 15.1 0 7 4 12.9 8.3 19.9 3.2 5.7 7 12.9 7 23.4 0 7.3-2.8 15.7-6.5 27.5l-8.5 28.3L134.8 85.2zM197.7 84.2c6.6 12.1 10.4 26 10.4 40.8 0 31.3-17 58.7-42.2 73.4l25.9-75c4.8-12.1 6.5-21.8 6.5-30.4C198.2 89.8 198 86.9 197.7 84.2"
     id="path4"
     style="fill:#ffffff;fill-opacity:1" />
</svg>
